<svg id="Layer_1" data-name="Layer 1" xmlns="http://www.w3.org/2000/svg" viewBox="0 0 128 128"><title>LINK</title><path d="M116.747,11.252a22.255,22.255,0,0,0-31.424,0L68.751,27.824a22.233,22.233,0,0,0-3.508,26.852L54.677,65.243a22.233,22.233,0,0,0-26.854,3.51l-16.57,16.57a22.22,22.22,0,0,0,31.424,31.424l16.57-16.57a22.25,22.25,0,0,0,3.5-26.848L73.322,62.758a22.237,22.237,0,0,0,26.855-3.511l16.571-16.571a22.234,22.234,0,0,0,0-31.424ZM76.837,35.907l16.57-16.57a10.787,10.787,0,0,1,15.255,15.255L92.09,51.165a10.673,10.673,0,0,1-7.62,3.155,10.84,10.84,0,0,1-2.435-.275l6.326-6.326a5.714,5.714,0,0,0-8.081-8.08l-6.32,6.32A10.765,10.765,0,0,1,76.837,35.907Zm5.918,6.207a2.214,2.214,0,1,1,3.131,3.13l-14.02,14.02c-.022.02-.042.041-.063.063L59.325,71.806c-.019.019-.039.038-.057.057L45.245,85.886a2.214,2.214,0,1,1-3.131-3.13L56.139,68.731c.02-.019.038-.038.057-.057L68.674,56.2c.019-.018.037-.036.055-.055ZM54.32,84.47a10.677,10.677,0,0,1-3.157,7.623l-16.57,16.57A10.787,10.787,0,0,1,19.337,93.407l16.57-16.57a10.767,10.767,0,0,1,10.051-2.876l-6.32,6.32a5.714,5.714,0,0,0,8.081,8.08l6.326-6.326A10.838,10.838,0,0,1,54.32,84.47ZM56.772,97.7,40.2,114.271A18.721,18.721,0,1,1,13.728,87.8L30.3,71.229a18.713,18.713,0,0,1,21.8-3.4l-3.349,3.349a14.259,14.259,0,0,0-15.312,3.188l-16.57,16.57a14.287,14.287,0,0,0,20.2,20.2L53.635,94.57a14.229,14.229,0,0,0,3.188-15.312l3.352-3.352A18.75,18.75,0,0,1,56.772,97.7Zm57.5-57.5L97.7,56.772a18.749,18.749,0,0,1-21.8,3.4l3.352-3.352a14.228,14.228,0,0,0,15.309-3.185l16.57-16.57a14.287,14.287,0,0,0-20.2-20.2l-16.57,16.57a14.259,14.259,0,0,0-3.188,15.312l-3.349,3.349a18.713,18.713,0,0,1,3.4-21.8L87.8,13.728A18.721,18.721,0,0,1,114.272,40.2Z"/></svg>